HIERARCHY
ROOT Hips
{
	OFFSET -0.179506 -22.333345 2.821913
	CHANNELS 6 Xposition Yposition Zposition Zrotation Yrotation Xrotation 
	JOINT LeftUpLeg
	{
		OFFSET 6.951974 -9.140623 -0.681533
		CHANNELS 3 Zrotation Yrotation Xrotation
		JOINT LeftLeg
		{
			OFFSET 3.427654 -37.519855 -0.449580
			CHANNELS 3 Zrotation Yrotation Xrotation
			JOINT LeftFoot
			{
				OFFSET -1.359570 -39.796059 -4.369333
				CHANNELS 3 Zrotation Yrotation Xrotation
				JOINT LeftToe
				{
					OFFSET 2.635814 -5.579078 11.928840
					CHANNELS 3 Zrotation Yrotation Xrotation
					End Site
					{
						OFFSET 0.000000 0.000000 0.000000
					}
				}
			}
		}
	}
	JOINT RightUpLeg
	{
		OFFSET -6.767048 -9.052170 -0.431982
		CHANNELS 3 Zrotation Yrotation Xrotation
		JOINT RightLeg
		{
			OFFSET -3.829005 -38.256897 -0.885003
			CHANNELS 3 Zrotation Yrotation Xrotation
			JOINT RightFoot
			{
				OFFSET 1.577377 -39.841461 -4.231180
				CHANNELS 3 Zrotation Yrotation Xrotation
				JOINT RightToe
				{
					OFFSET -2.537174 -4.814398 12.334795
					CHANNELS 3 Zrotation Yrotation Xrotation
					End Site
					{
						OFFSET 0.000000 0.000000 0.000000
					}
				}
			}
		}
	}
	JOINT Spine
	{
		OFFSET -0.253288 10.896323 -2.669631
		CHANNELS 3 Zrotation Yrotation Xrotation
		JOINT Spine1
		{
			OFFSET 0.548704 13.518043 0.109247
			CHANNELS 3 Zrotation Yrotation Xrotation
			JOINT Spine2
			{
				OFFSET 0.145701 5.292222 2.542457
				CHANNELS 3 Zrotation Yrotation Xrotation
				JOINT Neck
				{
					OFFSET -0.277840 21.387037 -4.285703
					CHANNELS 3 Zrotation Yrotation Xrotation
					JOINT Head
					{
						OFFSET 0.515184 6.496960 5.134897
						CHANNELS 3 Zrotation Yrotation Xrotation
						End Site
						{
							OFFSET 0.000000 0.000000 0.000000
						}
					}
				}
				JOINT LeftShoulder
				{
					OFFSET 7.884473 12.174932 -3.408961
					CHANNELS 3 Zrotation Yrotation Xrotation
					JOINT LeftArm
					{
						OFFSET 9.097692 3.046888 -0.886815
						CHANNELS 3 Zrotation Yrotation Xrotation
						JOINT LeftForeArm
						{
							OFFSET 25.961220 -1.277207 -2.745643
							CHANNELS 3 Zrotation Yrotation Xrotation
							JOINT LeftHand
							{
								OFFSET 24.923361 0.898606 -0.117091
								CHANNELS 3 Zrotation Yrotation Xrotation
								End Site
								{
									OFFSET 0.000000 0.000000 0.000000
								}
							}
						}
					}
				}
				JOINT RightShoulder
				{
					OFFSET -8.175920 11.883285 -3.861528
					CHANNELS 3 Zrotation Yrotation Xrotation
					JOINT RightArm
					{
						OFFSET -9.601238 3.255117 -0.914307
						CHANNELS 3 Zrotation Yrotation Xrotation
						JOINT RightForeArm
						{
							OFFSET -25.374195 -1.332924 -2.140099
							CHANNELS 3 Zrotation Yrotation Xrotation
							JOINT RightHand
							{
								OFFSET -25.529810 0.777228 -0.555919
								CHANNELS 3 Zrotation Yrotation Xrotation
								End Site
								{
									OFFSET 0.000000 0.000000 0.000000
								}
							}
						}
					}
				}
			}
		}
	}
}
MOTION
Frames: 15
Frame Time: 0.033333
9.723798 154.543442 92.594673 -172.998040 3.323130 81.570738 5.710145 4.334827 14.879023 -5.547861 -13.990132 23.656538 -8.048094 -1.269925 -15.359948 nan nan nan 4.021197 -3.059976 -10.957766 2.332286 -6.698784 5.762003 11.973943 -2.422760 14.199414 nan nan nan -2.916283 -1.995995 10.506500 6.067893 -4.355867 1.027060 4.966065 -4.802099 -0.763639 2.888732 -1.481226 11.915561 3.255701 -2.537934 9.119497 -14.850626 0.712170 4.763292 -63.587473 -18.054696 7.644599 6.590306 -27.555324 -4.572219 -6.798477 -17.618277 -26.503960 17.167847 -8.532221 0.998970 61.531059 -0.568010 6.807833 -12.915768 31.057118 -8.351446 10.985456 11.666419 -22.537158 
9.658270 153.688782 92.491104 -173.168048 3.100146 81.520709 5.320499 4.830550 15.080341 -5.212706 -13.903213 22.678582 -7.005831 -1.107978 -16.423657 nan nan nan 3.847144 -3.187901 -11.287608 2.168875 -6.402918 5.261028 12.134553 -2.819353 14.679153 nan nan nan -3.052212 -1.940298 10.974938 5.879759 -4.138415 0.715395 5.037945 -4.815041 -0.666216 2.763990 -1.773093 11.835401 3.300147 -2.227385 8.969141 -14.948821 0.760003 4.861735 -63.239752 -18.233592 7.378963 6.367212 -27.423407 -4.215056 -6.913848 -17.503921 -26.279537 17.248894 -8.440077 1.008281 61.370801 -0.328499 6.994271 -12.626703 31.513014 -8.375260 11.102897 11.781097 -22.459037 
9.560775 152.837097 92.374641 -173.202502 2.722598 81.418272 4.478949 4.471417 15.497085 -5.616428 -14.539800 21.426226 -5.010524 1.146432 -17.117444 nan nan nan 3.201032 -3.025787 -11.409621 2.591666 -5.903741 4.509556 11.680568 -3.963450 14.986486 nan nan nan -3.272725 -2.031578 11.187097 5.710153 -3.885735 0.628610 4.858087 -4.784668 -0.004925 2.969446 -2.020151 11.022993 3.283078 -2.103439 8.834442 -15.512466 1.212850 4.271256 -61.835000 -18.411345 8.931766 5.178817 -27.730318 -3.540435 -4.331264 -16.898711 -28.751372 17.982220 -8.918230 0.234538 60.931193 0.143865 8.816461 -13.343267 31.690366 -9.004138 11.386829 11.563630 -21.968645 
9.477878 151.983231 92.286880 -173.389440 2.380309 81.272285 3.808489 4.477151 15.759933 -5.789966 -14.994751 20.442763 -3.933593 2.453565 -17.525758 nan nan nan 2.751855 -2.853858 -11.549617 2.626564 -5.875982 3.907521 11.731393 -4.629937 15.330746 nan nan nan -3.544198 -2.067721 11.666049 5.551944 -3.598573 0.472642 4.823016 -4.660353 0.190858 3.126216 -2.233793 10.734831 3.363044 -2.052292 8.694946 -15.871301 1.368066 4.012117 -60.915419 -18.419524 9.899858 4.595082 -27.851627 -3.177307 -2.732065 -16.721552 -29.736919 18.327071 -9.029460 -0.126439 60.672999 0.323887 9.932275 -13.697305 31.957184 -9.527122 11.431511 11.691706 -22.177218 
9.404338 151.122009 92.212425 -173.661061 2.003246 81.096887 3.084672 4.665789 15.917214 -5.539734 -14.986674 19.521210 -3.119376 3.067604 -17.951988 nan nan nan 2.356613 -2.862526 -11.764932 2.462283 -6.169133 3.535041 12.149217 -4.887307 15.603177 nan nan nan -3.794089 -1.981405 12.280882 5.307349 -3.378136 0.262817 4.830132 -4.596313 0.241900 3.257767 -2.307362 10.516171 3.485961 -1.924467 8.570921 -16.142054 1.329794 3.928019 -60.328949 -18.327177 10.056029 4.589066 -27.810332 -3.356425 -2.562160 -16.930349 -29.525150 18.595536 -8.829208 -0.289953 60.487372 0.439010 10.372393 -13.879358 32.214604 -9.851325 11.753309 11.965348 -21.870642 
9.321239 150.268784 92.169006 -173.995336 1.585736 80.927183 2.373464 4.916063 16.010025 -5.300767 -14.793174 18.730663 -2.637810 3.326212 -18.211390 nan nan nan 1.923477 -2.952529 -12.049597 2.315599 -6.524176 3.409828 12.688272 -4.961086 15.575201 nan nan nan -3.984408 -1.857536 12.854636 4.982484 -3.170993 0.098781 4.809101 -4.562601 0.162422 3.256292 -2.299592 10.446302 3.618701 -1.826448 8.514569 -16.380121 1.148997 3.929207 -59.871799 -18.043564 9.960961 4.957920 -27.745024 -3.757156 -2.765462 -17.141894 -29.030120 18.816417 -8.480412 -0.279529 60.347313 0.595179 10.475503 -13.937953 32.373206 -9.994927 12.161186 12.205268 -21.267709 
9.259677 149.412704 92.161949 -174.231023 1.169014 80.868684 1.683482 5.069132 15.770665 -5.137884 -14.507976 18.302734 -2.437682 3.346060 -18.300138 nan nan nan 1.510635 -3.066123 -12.445888 2.168167 -6.722674 3.369922 13.227926 -5.007200 15.164378 nan nan nan -4.237927 -1.704374 13.257788 4.735460 -3.010038 -0.007925 4.791359 -4.547261 0.074312 3.283753 -2.281730 10.496352 3.766226 -1.903513 8.325867 -16.620959 1.090567 3.952456 -59.348780 -17.869277 9.814077 5.027344 -27.648387 -3.952348 -2.882932 -17.071567 -28.646486 19.112589 -8.298943 -0.290430 60.148175 0.835114 10.564844 -13.964298 32.519337 -10.025166 12.338767 12.164889 -20.599452 
9.217202 148.503815 92.166397 -174.266091 0.779007 80.966457 0.976850 4.993515 15.097394 -5.044278 -14.195093 18.230720 -2.096187 3.445666 -18.439883 nan nan nan 1.093064 -3.223730 -13.011995 2.057993 -6.952458 3.335394 13.553732 -5.130765 14.513505 nan nan nan -4.527277 -1.509918 13.587635 4.578972 -2.919660 -0.205485 4.787072 -4.617404 0.001581 3.428897 -2.294860 10.523963 3.863561 -2.105353 8.232217 -16.798142 1.082336 4.076160 -58.884476 -17.852958 9.688913 4.924334 -27.522545 -3.990229 -2.682714 -16.942324 -28.223815 19.417959 -8.234853 -0.388722 59.902982 1.102674 10.722506 -13.886264 32.698655 -9.975888 12.183964 12.085882 -20.195581 
9.181813 147.603851 92.192215 -174.458005 0.506142 80.946939 0.464845 4.975376 14.562150 -5.023802 -13.850775 18.155787 -1.807944 3.602988 -18.558948 nan nan nan 0.924983 -3.376626 -13.427071 1.897167 -7.087335 3.316694 13.530291 -5.238989 13.786824 nan nan nan -4.692863 -1.344697 13.960464 4.423367 -2.807201 -0.297301 4.794865 -4.613411 -0.025894 3.553507 -2.261179 10.441449 3.837969 -2.167131 8.164597 -16.862493 1.137964 4.031386 -58.600142 -17.747962 9.619457 4.808867 -27.423844 -3.938563 -2.408842 -16.860513 -27.949576 19.526340 -8.117757 -0.460745 59.705163 1.478200 10.833405 -13.542165 32.843694 -9.843738 12.043278 12.073505 -20.192202 
9.134690 146.725708 92.253464 -174.824683 0.372129 80.786799 0.128137 4.935099 14.282465 -5.014667 -13.489693 17.929462 -1.697948 3.771651 -18.632754 nan nan nan 0.931853 -3.496439 -13.712521 1.757522 -7.279076 3.447012 13.349404 -5.367013 12.991321 nan nan nan -4.674326 -1.178966 14.418659 4.263545 -2.640090 -0.254040 4.791586 -4.509742 -0.100554 3.594798 -2.186732 10.393883 3.785653 -2.116834 7.990077 -16.917621 1.210150 3.856610 -58.349273 -17.554019 9.630954 4.669883 -27.319452 -3.730925 -2.159671 -16.921970 -27.853693 19.503098 -8.023621 -0.588461 59.494893 1.819702 10.958503 -13.032200 32.912616 -9.409237 11.914072 12.080529 -20.139322 
9.076455 145.848770 92.318291 -175.087288 0.227669 80.730628 -0.301393 4.769219 13.916569 -4.935033 -13.198166 17.614647 -1.596058 3.923278 -18.672849 nan nan nan 0.869277 -3.583818 -14.132693 1.603429 -7.678016 3.662057 13.073345 -5.538294 12.121657 nan nan nan -4.645755 -1.051760 14.713945 4.118066 -2.517043 -0.266500 4.769260 -4.444475 -0.111528 3.542304 -2.179531 10.437863 3.764529 -2.075055 7.791634 -16.977777 1.195476 3.746736 -58.146879 -17.301422 9.617333 4.695083 -27.207125 -3.643563 -1.932583 -16.978706 -27.813723 19.456415 -7.780030 -0.585808 59.386431 2.088318 10.996870 -12.856725 32.846497 -9.155952 12.015817 12.177076 -19.893900 
9.024329 144.993820 92.380089 -175.360042 0.117592 80.794254 -0.696910 4.640059 13.387686 -4.867650 -13.019655 17.416624 -1.452927 3.990302 -18.759550 nan nan nan 0.866863 -3.609534 -14.643014 1.402615 -8.170295 3.858506 12.782947 -5.595130 11.170648 nan nan nan -4.555403 -0.974931 14.847368 3.972745 -2.405492 -0.317285 4.702529 -4.314874 -0.135389 3.443932 -2.151082 10.535074 3.814144 -2.113366 7.629505 -17.030837 1.064446 3.744405 -57.925776 -16.884125 9.629693 4.758479 -27.234962 -3.791501 -1.436714 -17.034166 -27.718632 19.323750 -7.476084 -0.477376 59.461526 2.241921 10.915203 -12.904803 32.825532 -9.096463 11.852149 12.333595 -19.627579 
8.950832 144.173798 92.469292 -175.663622 0.075542 80.710418 -0.962722 4.637115 13.024554 -4.759021 -12.811299 17.239935 -1.406334 3.853448 -18.657758 nan nan nan 0.894154 -3.700887 -14.939916 1.270314 -8.771751 4.037009 12.407810 -5.647674 10.173496 nan nan nan -4.380005 -0.914270 15.078650 3.836781 -2.306526 -0.246626 4.617308 -4.168157 -0.201932 3.404905 -2.118419 10.689354 3.794654 -2.139123 7.405503 -17.016843 1.006464 3.776274 -57.766681 -16.491649 9.655484 4.698674 -27.315686 -3.865642 -1.047345 -17.074610 -27.685444 19.107756 -7.239111 -0.462936 59.566777 2.423565 10.916268 -12.782655 32.808415 -9.032159 11.348834 12.491437 -19.580320 
8.852955 143.366150 92.576187 -175.984991 0.038041 80.545721 -1.267025 4.636566 12.766072 -4.552545 -12.500084 16.990119 -1.264381 3.736732 -18.338485 nan nan nan 0.855082 -3.830422 -15.151006 1.219853 -9.394483 4.267630 12.175717 -5.786528 9.358216 nan nan nan -4.192028 -0.857682 15.414149 3.705646 -2.154517 -0.206408 4.546102 -4.007788 -0.234799 3.353266 -2.112196 10.833538 3.703207 -2.134914 7.209943 -16.927295 1.214438 3.729948 -57.819505 -16.359228 9.608516 4.595441 -27.130857 -3.664565 -1.351265 -17.204108 -27.638276 18.892635 -7.143932 -0.515396 59.603350 2.677245 10.948795 -12.560774 32.687423 -8.931733 11.520100 12.627183 -19.568171 
8.757137 142.572510 92.694496 -176.392530 -0.046623 80.446627 -1.658493 4.650508 12.438827 -4.284940 -12.088734 16.685722 -0.978532 3.792763 -17.864449 nan nan nan 0.820262 -3.911850 -15.458128 1.093934 -9.773897 4.575861 12.076846 -6.013158 8.984235 nan nan nan -4.010122 -0.807818 15.650812 3.544127 -1.941788 -0.238130 4.432424 -3.814193 -0.171634 3.288498 -2.155463 10.909439 3.581400 -2.060781 7.135406 -16.882861 1.645027 3.623733 -57.873965 -16.310616 9.423962 4.396380 -26.940045 -3.281513 -1.820973 -17.285092 -27.324442 18.772285 -7.112887 -0.489921 59.591472 3.001803 10.983803 -12.435702 32.560559 -8.902373 11.943293 12.545088 -19.428667 
